/* XPM */
static char *dummy[]={
"32 32 3 1",
". c #153155",
"a c #a28d26",
"# c #ffd400",
"................................",
"................................",
"................................",
"................................",
"............########............",
"..........########aa##..........",
".........#########aa###.........",
".........###############........",
"........################........",
"........#################.......",
".......#####aa############......",
".......#####aa############......",
".......###################......",
".......#############aa####......",
"......##############aa#####.....",
"......#####################.....",
"......#####################.....",
"......##aa#################.....",
"......##aa#################.....",
".......###################......",
".......###################......",
".......########aa#########......",
".......########aa########.......",
"........#################.......",
"........################........",
"..........#############.........",
"............#########...........",
"................................",
"................................",
"................................",
"................................",
"................................"};
