/* XPM */
static char *dummy[]={
"32 32 3 1",
"a c #000000",
". c #0b162c",
"# c #820005",
"................................",
"................................",
"................................",
".........####.........###.......",
".........#####.......####.......",
".........######.....#####.......",
".........######....#####........",
"..........#############.........",
"...........############.........",
"..........#############.........",
"...####..##############.........",
"..######################........",
"..###########aa###aa####........",
"....#########aaa#aaa##aa#####...",
"......###aa###aa#aa#aaaa#####...",
".......##aaaa######aaaaa####....",
".......###aaaaa###aaaa##........",
".......####aaaa###aa#####.......",
"......###################.......",
"....####################........",
"....#######aaaaaaaa####.........",
"....#######aaaaaaaaaa#..........",
"......###..aa#####aaa##.........",
"...........########aa###........",
"...........########.#####.......",
"...........####......#####......",
"..........####.........###......",
"..........####..................",
"..........##....................",
"................................",
"................................",
"................................"};
