/* XPM */
static char *dummy[]={
"32 32 3 1",
"a c #000000",
". c #153155",
"# c #820005",
"................................",
"................................",
"..............###...............",
"..............####..............",
"..............####..............",
".....###......####..............",
".....####.....#####.......###...",
".....##############......####...",
".....#################.######...",
"......######################....",
".......###################......",
"........####aa###aa######.......",
".......#####aaa#aaa##aa##.......",
".......##aa##aa#aa##aaa#........",
".......##aaaa#####aaaaa#........",
"....######aaaa####aaa###........",
"..##########aa####aa####........",
"..#######################.......",
".......##################.......",
".......#######aaaaaa######......",
"........####aaaaaaaaa######.....",
"........###aaaaa###aa#.#####....",
"......#####aaa#####aa...#####...",
".....#######.#######......###...",
".....######.....####............",
".....####.......####............",
".....##..........###............",
".................###............",
"................................",
"................................",
"................................",
"................................"};
