/* XPM */
static char *dummy[]={
"32 32 5 1",
"a c #000000",
". c #153155",
"# c #693600",
"b c #8a4700",
"c c #eb9c39",
"................................",
"................................",
"........############............",
"........##################......",
".......##aaaaaaaaaaaaaaaa###....",
".......#aaaaaaaaaaaaaaaaaa##....",
".......#aabbbbbbbbbbbbbbaa##....",
".......#aabbbbbbbbbbbbbbaa##....",
"......##aabbbbbbbbbbbbbbaa##....",
"......#aabbbbbbbbbbbbbbbaa##....",
"......#aabbbbbbbbbbbbbbbaa#.....",
"......#aabbbbbbbbbbbbbbbaa#.....",
"......#aabbbbbbbbbbbbbbbaa#.....",
"......#aabbbbbbbbbbbbbbbaa#.....",
"......#aabbbbbbbbbbbbbbbaa#.....",
"......#aabbbbbbbbbbbbbbbaa#.....",
"......#aabbbbbbbbbbbbbbbaa#.....",
"......#aabbbbbbbbbcccbbaa##.....",
"......#aabbbbbbbbbcccbbaa#......",
"......#aabbbbbbbbbbbbbbaa#......",
"......#aabbbbbbbbbbbbbbaa#......",
"......#aabbbbbbbbbbbbbbaa#......",
"......#aabbbbbbbbbbbbbbaa#......",
".....##aabbbbbbbbbbbbbbaa#......",
".....#aabbbbbbbbbbbbbbbaa#......",
".....#aabbbbbbbbbbbbbbbaa#......",
".....#aaaaaaabbbbbbbbbaaa#......",
".....#aaaaaaaaaaaaaaaaaa##......",
".....#######aaaaaaaaaa###.......",
"...........############.........",
"................................",
"................................"};
