/* XPM */
static char *dummy[]={
"32 32 3 1",
"a c #000000",
". c #153155",
"# c #ffffff",
"................................",
"................................",
"................................",
"................................",
".............######.............",
".............########...........",
"..........############..........",
"..........#############.........",
"..........##############........",
".........###############........",
".........###############........",
".........###############........",
".........###aa##########........",
"........####aa#####aa###........",
"........###########aa###........",
"........################........",
"........################........",
"........################........",
"........################........",
".....##################.........",
"....#####################.......",
".....#######################....",
"............#######...######....",
"................................",
"................................",
"................................",
"................................",
"................................",
"................................",
"................................",
"................................",
"................................"};
