/* XPM */
static char *dummy[]={
"32 32 2 1",
". c #0b162c",
"# c #2a4171",
"...............##...............",
"...............##...............",
"...............##...............",
"...............###..............",
"................##.............#",
"................##..############",
"....############################",
"#####################...##......",
"#####....##.............##......",
".........##.............##......",
".........##.............##......",
".........##.............##......",
".........###............##......",
".........###............##..####",
"..........##........############",
".........#####################..",
"######################..........",
"###########......##.............",
".................##.............",
".................##.............",
".................##.............",
".................###............",
"..................##............",
"..................##.....#######",
"...........#####################",
"###########################.....",
"#############............##.....",
"##........##.............##.....",
"..........##.............##.....",
"..........##.............###....",
"..........##..............##....",
"..........##..............##...."};
