/* XPM */
static char *dummy[]={
"32 32 3 1",
". c #435d92",
"# c #8d9fc3",
"a c #d6ddeb",
"...............##...............",
"...............##...............",
"...............##...............",
"...............##a..............",
"................##.............a",
"................##..aaaaaaaaaaa#",
"....aaaaaaaaaaaa##aa############",
"aaaa#################...##......",
"#####....##.............##......",
".........##.............##......",
".........##.............##......",
".........##.............##......",
".........##a............##......",
".........###............##..aaaa",
"..........##........aaaa##aa####",
".........a##aaaaaaaa##########..",
"aaaaaaaaa#############..........",
"###########......##.............",
".................##.............",
".................##.............",
".................##.............",
".................##a............",
"..................##............",
"..................##.....aaaaaaa",
"...........aaaaaaa##aaaaa#######",
"aaaaaaaaaaa################.....",
"#############............##.....",
"##........##.............##.....",
"..........##.............##.....",
"..........##.............##a....",
"..........##..............##....",
"..........##..............##...."};
