/* XPM */
static char *dummy[]={
"14 12 6 1",
"b c #1a0000",
"# c #25982f",
"a c #8ce02f",
"d c #aab9cb",
"c c #f2eee7",
". c #ffffff",
".##aa...##aa..",
"##aabaaaaaaba.",
"##aabaaaaaaba.",
"##aabaaaaaaba.",
"##aabaaaaaaba.",
"##acaaaaaaaac.",
"ddaabbbbbbbba.",
"daddaaaaaaaad.",
"daacccccdcccca",
"ddccddccbcddc.",
"dcccccccdcccc.",
".##a#a.###a#a."};
